<?xml version="1.0" encoding="utf-8"?>
<!-- Generator: Adobe Illustrator 19.2.1, SVG Export Plug-In . SVG Version: 6.00 Build 0)  -->
<svg version="1.1"
	 id="svg9749" inkscape:version="0.92.0 r15299" sodipodi:docname="ziggo.svg" xmlns:cc="http://creativecommons.org/ns#" xmlns:dc="http://purl.org/dc/elements/1.1/" xmlns:inkscape="http://www.inkscape.org/namespaces/inkscape" xmlns:rdf="http://www.w3.org/1999/02/22-rdf-syntax-ns#" xmlns:sodipodi="http://sodipodi.sourceforge.net/DTD/sodipodi-0.dtd" xmlns:svg="http://www.w3.org/2000/svg"
	 xmlns="http://www.w3.org/2000/svg" xmlns:xlink="http://www.w3.org/1999/xlink" x="0px" y="0px" viewBox="0 0 46.9 17"
	 style="enable-background:new 0 0 46.9 17;" xml:space="preserve">
<style type="text/css">
	.st0{fill:#FFFFFF;}
</style>
<sodipodi:namedview  bordercolor="#666666" borderopacity="1.0" fit-margin-bottom="0" fit-margin-left="0" fit-margin-right="0" fit-margin-top="0" id="base" inkscape:current-layer="layer1" inkscape:cx="22.932" inkscape:cy="7.9766877" inkscape:document-units="mm" inkscape:pageopacity="0.0" inkscape:pageshadow="2" inkscape:window-height="744" inkscape:window-maximized="1" inkscape:window-width="1280" inkscape:window-x="-4" inkscape:window-y="-4" inkscape:zoom="17.486482" pagecolor="#ffffff" showgrid="false" units="px">
	</sodipodi:namedview>
<g id="layer1" transform="translate(-85.402813,-182.74398)" inkscape:groupmode="layer" inkscape:label="Layer 1">
	<g id="g7918" transform="matrix(0.35277777,0,0,-0.35277777,89.713404,183.80125)">
		<path id="path7920" inkscape:connector-curvature="0" class="st0" d="M34-8.3c-2.8,0-5.3-2.3-5.3-4.9v-20.1c2.8,0,5.3,2.3,5.3,4.9
			V-8.3z M107.1-28.5c-1.8,0-3.4,0.6-4.7,1.9c-1.3,1.3-1.9,2.7-1.9,4.5c0,0.8,0,2.4,0,3.2c0,1.8,0.6,3.2,1.9,4.4
			c1.3,1.3,2.9,1.9,4.7,1.9c1.8,0,3.4-0.6,4.7-1.9c1.3-1.2,1.9-2.6,1.9-4.4c0-0.7,0-2.4,0-3.2c0-1.8-0.6-3.2-1.9-4.5
			C110.5-27.9,108.9-28.5,107.1-28.5 M119.2-19c0,3.2-1.2,5.9-3.5,8.2c-2.4,2.3-5.2,3.4-8.5,3.4h0c-3.3,0-6.2-1.1-8.5-3.4
			c-2.3-2.2-3.5-5-3.5-8.1c0-0.5,0-2.6,0-3.3c0-3.2,1.2-6,3.5-8.2l0,0c2.4-2,5.2-3.1,8.5-3.1h0c3.3,0,6.1,1,8.5,3.1l0,0
			c2.3,2.2,3.5,5,3.5,8.2C119.2-21.5,119.2-19.4,119.2-19 M87.6-21.6c-1.8-0.7-2.3-2.1-2.6-2.8c-0.3-0.8-0.8-1.6-1.5-2.3
			c-1.4-1.3-2.9-1.9-4.7-1.9c-1.8,0-3.4,0.6-4.7,1.9c-1.3,1.3-1.9,2.7-1.9,4.5c0,0.8,0,2.4,0,3.2c0,1.8,0.6,3.2,1.9,4.4
			c1.3,1.3,2.9,1.9,4.7,1.9c1.8,0,3.4-0.5,5.1-2.3c0.4-0.5,1.1-0.8,1.9-0.8c0.7,0,1.4,0.3,1.9,0.8c0.5,0.5,0.8,1.2,0.8,1.9
			c0,0.6-0.2,1.2-0.6,1.7c-1.5,1.8-4.7,4-9.1,4c-3.3,0-6.2-1.1-8.5-3.4c-2.3-2.2-3.5-5-3.5-8.1c0-0.5,0-2.6,0-3.3
			c0-3.2,1.2-6,3.5-8.2l0,0c2.4-2,5.2-3.1,8.5-3.1c2.5,0,4.8,0.6,6.8,1.8c0-1.5-0.9-6.7-6.7-6.7c-1.6,0-2.8,0.6-3.2,0.9
			c-2.3,1.4-4.6,0.3-6.3-1.3c0,0,3.2-4.8,9.4-4.8c3.2,0,6.1,0.9,8.4,3.2c2.5,2.5,3.7,5.7,3.7,9.4v9.9C90.8-21.1,89.1-21,87.6-21.6
			 M62.4-21.1V-31c0-3.7-1.1-6.9-3.7-9.4c-2.3-2.3-5.2-3.2-8.4-3.2c-6.2,0-9.4,4.8-9.4,4.8c1.7,1.7,4,2.7,6.3,1.3
			c0.4-0.2,1.5-0.9,3.2-0.9c5.8,0,6.7,5.2,6.7,6.7c-2-1.2-4.3-1.8-6.8-1.8c-3.3,0-6.1,1-8.5,3.1l0,0c-2.3,2.2-3.5,5-3.5,8.2
			c0,0.7,0,2.8,0,3.3c0,3.2,1.2,5.9,3.5,8.1c2.4,2.3,5.2,3.4,8.5,3.4c4.4,0,7.6-2.2,9.1-4c0.4-0.5,0.6-1,0.6-1.7
			c0-0.7-0.3-1.4-0.8-1.9c-0.5-0.5-1.2-0.8-1.9-0.8c-0.7,0-1.4,0.3-1.9,0.8c-1.7,1.7-3.2,2.3-5.1,2.3c-1.8,0-3.4-0.6-4.7-1.9
			c-1.3-1.2-1.9-2.6-2-4.4c0-0.8,0-2.4,0-3.2c0-1.8,0.6-3.3,1.9-4.5c1.4-1.2,2.9-1.9,4.7-1.9c1.8,0,3.4,0.6,4.7,1.9
			c0.7,0.7,1.2,1.4,1.5,2.3c0.2,0.7,0.8,2.1,2.6,2.8C60.6-21,62.4-21.1,62.4-21.1 M23.8-33.3c-0.1,1.9-1.4,4.9-4.7,5.3H7.4l13.5,13
			c0.6,0.5,1.9,2.4,0.9,4.4c-0.7,1.6-2,2.3-4.1,2.3H0.9C0.9-10.6,2-13.2,5-13.7h9.6L0.4-27.1c-0.6-0.6-1.5-2.3-0.8-4
			c0.7-1.6,1.8-2.2,3.9-2.2H23.8z M31-36.4c0.5-0.5,0.8-1.2,0.8-1.9c0-0.8-0.4-1.5-0.8-1.9c-0.8-0.8-1.9-1.6-3.3-2.2
			c-1.2-0.5-2.5-0.8-3.9-0.8H-0.7c-2.8,0-5.3,1.1-7.1,3c-1.8,1.8-2.9,4.3-2.9,7.1v24.6c0,2.8,1.1,5.3,2.9,7.1c1.8,1.8,4.3,3,7.1,3
			h24.6c1.4,0,2.7-0.3,3.9-0.8c1.6-0.7,2.7-1.5,3.7-2.6c0.4-0.4,0.8-1.1,0.8-1.9c0-0.7-0.3-1.4-0.8-1.9c-0.5-0.5-1.2-0.8-1.9-0.8
			c-0.7,0-1.4,0.3-1.9,0.8c-0.7,0.7-1.1,1.1-1.9,1.4c-0.6,0.2-1.2,0.4-1.8,0.4H-0.7c-1.3,0-2.5-0.5-3.4-1.4c-0.9-0.9-1.4-2-1.4-3.3
			v-24.6c0-1.3,0.5-2.5,1.4-3.4c0.9-0.9,2-1.4,3.4-1.4h24.6c0.7,0,1.3,0.1,1.8,0.4c0.5,0.2,1,0.6,1.5,1c0.5,0.5,1.2,0.8,1.9,0.8
			C29.8-35.7,30.5-35.9,31-36.4"/>
	</g>
</g>
</svg>
