<?xml version="1.0" encoding="utf-8"?>
<!-- Generator: Adobe Illustrator 19.2.1, SVG Export Plug-In . SVG Version: 6.00 Build 0)  -->
<svg version="1.1" id="Layer_1" xmlns="http://www.w3.org/2000/svg" xmlns:xlink="http://www.w3.org/1999/xlink" x="0px" y="0px"
	 viewBox="0 0 550.8 210.6" style="enable-background:new 0 0 550.8 210.6;" xml:space="preserve">
<style type="text/css">
	.st0{fill:#FFFFFF;}
</style>
<image style="overflow:visible;" width="324" height="136" xlink:href="../../../../Downloads/28183b51.png"  transform="matrix(1.#QNB 1.#QNB 1.#QNB 1.#QNB 1.#QNB 1.#QNB)">
</image>
<image style="overflow:visible;" width="324" height="136" xlink:href="../../../../Downloads/28183b51.png"  transform="matrix(1.#QNB 1.#QNB 1.#QNB 1.#QNB 1.#QNB 1.#QNB)">
</image>
<g>
	<path class="st0" d="M205.8,47.2c-11.8,2.2-20.3,12.3-20.3,24.4c0,29.7,0,59.3,0,89c0,15.4-8.9,24.5-23.9,24.6
		c-37.3,0.1-74.7,0.1-112,0c-14.7,0-23.6-9-23.6-23.7c-0.1-37.2-0.1-74.3,0-111.5c0-15.3,8.8-24.3,24.1-24.4c37-0.1,74,0,111,0
		c7.5,0,13.9,2.3,19.3,7.7c5.6,5.6,13.1,5.8,18.3,0.7c5.2-5.1,4.8-12.9-0.7-18.7c-8.5-9-19-14.4-31.3-14.6
		C146.4,0.2,126,0.5,106,0.5c0-0.1,0-0.2,0-0.3c-18,0-37,0-55.5,0C20.7,0.2,0.3,20.7,0.4,50.5c0,36.7,0,73.3,0,110
		c0,4.2,0.2,8.3,1.1,12.4c5,22.8,23.6,37.5,47.7,37.6c37.3,0.1,74.7,0.1,112,0c28.7,0,49.2-19.7,49.5-48.3c0.4-37,0-74,0.2-111
		C210.9,47,209.1,46.6,205.8,47.2z"/>
	<path class="st0" d="M503.3,111.8c9.8,1.9,19.6,1.8,29.4-0.3c10.8-2.4,16.6-9.2,17.5-20.3c0.4-4.9,0.5-9.8,0.7-14.8
		c-0.2,0-0.4,0-0.6,0c0-4.9,0.3-9.9-0.1-14.8c-0.7-11.5-7-18.4-18.2-20.7c-8.4-1.7-16.8-1.7-25.2-0.7c-15.3,1.9-21.6,7.9-22.7,22.1
		c-0.7,9.3-0.7,18.8,0,28.1C485,103.4,490.7,109.4,503.3,111.8z M504,65.7c0.3-6.2,2.8-8.4,8.9-8.9c15.6-1.2,17.7,0.7,17.6,16.5
		c0,1,0,1.9,0,2.9c0.1,0,0.1,0,0.2,0c-0.2,4.1-0.2,8.3-0.6,12.4c-0.3,3.9-2.5,6.4-6.6,7c-0.8,0.1-1.6,0.3-2.4,0.4
		c-13.9,1.7-17.3-1.2-17.3-15C503.9,75.9,503.7,70.8,504,65.7z"/>
	<path class="st0" d="M426.1,111.5c10.5,2.2,21.2,2.1,31.8,0.7c11.2-1.6,15.5-6.5,17-17.8c0.9-6.5,0.3-13,0.6-19.5
		c0.1-2.4-0.8-3.4-3.3-3.4c-4.4,0.1-8.9,0-13.4,0c-3.8,0-7.7,0.3-11.4-0.1c-4-0.3-5.2,1-5.1,5c0.3,10.4-0.7,8.3,8.2,8.5
		c5.4,0.1,6.3,1.5,4.4,6.6c-1,2.6-2.6,4.2-5.4,4.8c-3.3,0.7-6.6,0.9-9.9,0.5c-7.4-1-9.9-3.7-10.1-11.2c-0.1-5.2-0.1-10.5-0.1-15.7
		c0-10.2,2.8-13.1,13-13.2c8.4-0.1,16.8,0.5,25.2,1.5c2.6,0.3,3.5-0.4,3.4-2.9c-0.1-3.6-0.1-7.3,0-11c0-1.9-0.7-2.9-2.6-3.2
		c-13.5-1.5-26.9-2.8-40.3,0.1c-11.4,2.4-17,8.7-18.2,20.3c-1.1,10.8-1.1,21.6,0.2,32.3C411,103.7,416.6,109.5,426.1,111.5z"/>
	<path class="st0" d="M351.5,111.4c11.5,2.3,23.1,2.4,34.6,0.1c8.5-1.6,12.6-6.2,14-14.7c1.2-7.4,0.9-14.9,1-22.4
		c0-2.2-0.8-3.1-3-3.1c-4.3,0.1-8.6,0-12.9,0c-4.6,0-9.2,0-13.8,0c-1.2,0-3.1-0.4-3.2,1.2c-0.3,3.6-0.9,7.5,0.1,10.9
		c0.8,2.8,4.5,0.9,6.8,1.4c2,0.5,5.4-1.6,5.9,2c0.5,3.4-0.3,6.7-3.8,8.6c-0.8,0.4-1.8,0.7-2.7,0.9c-3.8,0.8-7.6,0.7-11.4,0.1
		c-4.8-0.7-7.5-3.5-7.9-8.2c-0.7-7.8-0.8-15.6,0-23.3c0.6-5.2,3.1-7.5,8.4-8.1c6.7-0.7,13.4-0.2,20,0.3c13.6,1.1,13.5,1.2,12.7-12.6
		c-0.1-2.1-0.7-3.3-2.9-3.5c-13.1-1.4-26.3-2.6-39.4-0.1c-11.9,2.3-17.9,9.2-18.9,21.2c-0.9,10.1-0.9,20.3,0.1,30.5
		C336.3,103.1,341.7,109.4,351.5,111.4z"/>
	<path class="st0" d="M500.4,169.4c-1.2-3.7-2.7-7.2-6.8-9.5c6.8-3.2,8.3-5.5,8.4-12.3c0-2.7,0.1-5.3-0.1-8c-0.4-7.9-4-12-11.8-13.1
		c-10.9-1.5-21.8-0.3-32.7-0.8c-2.9-0.1-3.5,1-3.5,3.7c0.1,15.1,0.1,30.1,0.1,45.2c0,7.7,0,7.7,7.8,7.7c8.2,0,7.1,1.1,7.2-7.2
		c0.2-9-1.8-7.7,8.1-7.8c3.2-0.1,5.7,0.7,6.9,4.1c1.3,3.6,1.2,8.7,4.4,10.3c3.2,1.6,7.8,0.5,11.8,0.6c0.4,0,0.8,0,1.2,0
		c2.9,0.3,3.5-0.9,2.4-3.5C502.4,175.7,501.4,172.5,500.4,169.4z M486.3,150.8c-0.6,1.9-1.7,3-3.7,3.1c-2,0.1-4,0-6,0
		c-7.7,0.1-7.7,0.1-7.7-7.8c0-7,0-7,6.8-7c0.7,0,1.3,0,2,0C485.9,139.1,488.6,142.8,486.3,150.8z"/>
	<path class="st0" d="M445.9,168.1c1.3-8.6,1.1-17.3,0.3-25.9c-0.9-9.7-5.5-14.1-15.1-15.9c-7.1-1.3-14.3-1.4-21.5,0.1
		c-10.4,2.1-14.9,8.3-15,19c0,3.1,0,5.7,0,9.7c0,0,0.1,0,0.1,0c0,3-0.2,7.3,0,11.1c0.5,8.1,4.8,13.2,12.7,15.2
		c8.9,2.3,18,2.1,26.9-0.3C440.8,179.4,444.8,174.8,445.9,168.1z M430.8,151.4c0,1.1,0,2.6,0,3.6c-0.1,0-0.1,0-0.2,0
		c0,2,0.2,5.7,0,8.7c-0.2,3.5-2.3,5.4-5.9,5.6c-13.1,0.8-15-0.4-14.7-12.9c0.1-3.6-0.1-7.3,0.2-10.8c0.4-4.7,2.2-6.3,6.8-6.6
		C430.2,138.1,431.1,140.8,430.8,151.4z"/>
	<path class="st0" d="M243.3,87.8c-5.6,5.7-7.9,11.6-7.3,19.5c0.3,4,1,5.5,5.3,5.4c14-0.3,28-0.1,42-0.1c12.2,0,12.1,0,12.1-12.2
		c0-3.6-0.9-5-4.8-4.9c-9.5,0.3-19,0.1-29.8,0.1c1.8-2.2,2.7-3.4,3.8-4.6c7.7-8.7,15.1-17.7,23.3-25.8c5.9-5.9,8.6-12.2,7.4-20.3
		c0-0.2,0-0.3,0-0.5c0.5-3.4-1.1-4.3-4.3-4.3c-13.4,0.2-26.7,0.1-40.1,0.1c-12.5,0-12.3,0-12.3,12.6c0,3.7,1.2,4.5,4.7,4.5
		c8.7-0.2,17.4-0.1,26.9-0.1c-1.3,1.7-2,2.7-2.8,3.6C259.4,69.8,251.8,79.2,243.3,87.8z"/>
	<path class="st0" d="M334.7,162c-0.2-8.3-2.9-11.5-11-13.1c-5.6-1.1-11.4-1.2-17.1-1.8c-4-0.4-5.4-2.4-4.6-5.9
		c0.7-3.1,3.3-3.2,5.6-3.4c5.3-0.4,10.7,0.2,16,0.6c9,0.7,9,0.7,8.6-8.5c0-0.1,0-0.3,0-0.4c0.1-1.9-0.5-2.8-2.6-3.1
		c-10-1.2-19.9-1.7-29.9-0.6c-8,0.9-11.9,5-12.7,12.9c-0.2,2.2-0.2,4.5-0.1,6.8c0.6,8.3,4.1,12,12.3,13c5.4,0.7,10.9,1.1,16.3,1.4
		c3,0.2,4.2,1.7,4.2,4.6c0,3.6-2,5-5.3,5.1c-6,0.3-12-0.1-18-0.6c-9.3-0.8-9.3-0.7-8.6,9c0.1,1.9,0.6,2.9,2.7,3
		c5.7,0.4,11.4,1,16.5,1.5c3.7-0.2,6.7-0.3,9.8-0.6C331.7,180.7,335,176.9,334.7,162z"/>
	<path class="st0" d="M388.4,156c0.9-4.4,0.8-8.8,0.6-13.1c-0.6-11.2-5.8-16.5-17-16.9c-8.9-0.3-17.8,0-26.8-0.2
		c-2.9-0.1-3.6,1-3.5,3.7c0.1,8.1,0.1,16.3,0.1,24.4c0,8.4,0,16.8,0,25.2c0,1.6-0.1,3,2.3,3.3c11.7,1.5,12.6,0.8,12.6-10.6
		c0-2.9,0.7-4,3.8-3.9c5,0.2,10.1,0.2,15.2-0.4C383.2,166.7,386.8,163.4,388.4,156z M364.8,154.6c-8.1,0-8.1,0-8.1-8.1
		c0-0.3,0-0.5,0-0.8c0-6.7,0-6.7,6.7-6.5c1.2,0,2.4-0.1,3.6,0c5.2,0.3,6.2,1.4,6.4,6.6C373.7,153.3,372.4,154.6,364.8,154.6z"/>
	<path class="st0" d="M550.8,129.2c0-3-1.1-3.5-3.7-3.5c-6.1,0.2-12.3,0.1-18.4,0.1c-6.5,0-13.1,0-19.6,0c-1.5,0-2.7-0.1-3,2.1
		c-1.4,10.4-0.8,11.2,9.3,11.1c0.4,0,0.8,0,1.2,0c2.9-0.5,3.9,0.5,3.8,3.6c-0.2,12,0,24-0.1,36c0,2.8,0.8,3.8,3.6,3.6
		c2.4-0.2,4.8-0.2,7.2,0c3.4,0.3,4.6-0.7,4.5-4.4c-0.3-11.1-0.1-22.1-0.1-33.2c0-5.7,0-5.7,5.5-5.7
		C551,139.1,550.9,139.1,550.8,129.2z"/>
	<path class="st0" d="M305.1,76.3c0,10.8,0.1,21.6,0,32.4c0,2.8,0.8,4,3.8,3.9c4.1-0.2,8.3-0.1,12.4,0c2.5,0.1,3.3-0.9,3.3-3.4
		c-0.1-21.8-0.1-43.6,0-65.4c0-3-1.3-3.8-4-3.7c-3.7,0.1-7.3,0.2-11,0c-3.6-0.2-4.6,1.2-4.6,4.7C305.3,55.3,305.1,65.8,305.1,76.3z"
		/>
	<path class="st0" d="M272.9,169.7c-5.1,0.3-10.2-0.1-15.3,0.1c-4.1,0.2-4.8-1.9-4.8-5.3c0-3.5,0.7-5.5,4.8-5.2
		c4.4,0.3,8.8-0.1,13.1,0.1c3.7,0.2,5.9-0.5,5.8-5.1c-0.1-4.1-1.5-5.6-5.6-5.4c-4.6,0.2-9.2-0.1-13.9,0c-3.8,0.1-4.3-2.1-4.3-5.1
		c0-3.1,0.5-5.1,4.3-4.9c5.1,0.2,10.2-0.2,15.3,0.1c4.9,0.3,5.5-2.2,5.5-6.2c0-4.1-0.2-7-5.7-6.9c-9.7,0.3-19.4,0.2-29.2,0
		c-4.6-0.1-5.9,2.4-5.8,6.7c0.2,7.3,0.1,13.4,0.1,22.4c0,0,0,0,0,0c0,6,0.2,14.5-0.1,22.1c-0.1,4.4,1.5,5.8,5.9,5.7
		c10-0.2,19.9-0.4,29.9-0.2c4.7,0.1,5.7-2,5.7-6.2C278.9,172,277.9,169.4,272.9,169.7z"/>
	<g>
		<path class="st0" d="M141.8,44.5l0.1,3c0.1,1.7-0.4,3.1-1.3,4.1c-1.3,1.3-3.4,2-5.2,2.3c0.1-1.5,0.1-3.1,0.2-4.7
			c-2.6,0-16.2,0-29.9,0c0,0,0,0,0,0c-13.6,0-27.3,0-29.9,0c0.1,1.6,0.1,3.2,0.2,4.7c-1.8-0.3-3.9-1-5.2-2.3c-1-1-1.4-2.3-1.3-4.1
			l0.1-3l-15.8,0l0.1,2.9C54.6,98,76,110.2,85.8,113.2l-1.6,2.3l4.7,3.3l1.6-2.3c3.2,6,6,9.8,7.2,12.9h-2.2l0,4.6h2.7
			c-1.1,7.1-15.4,15.3-15.4,15.3l0,4.3h-3.5l0,24.5l26.2,0h0l26.2,0l0-24.5h-3.5v-4.3c0,0-14.3-8.2-15.4-15.3l2.7,0l0-4.6h-2.2
			c1.2-3.1,4-6.9,7.2-12.9l1.6,2.3l4.7-3.3l-1.6-2.3c9.8-3,31.2-15.2,32.1-65.8l0.1-2.9L141.8,44.5z M59.6,50.3l4.2,0
			c0.4,2.1,1.3,3.9,2.8,5.4c2.9,2.9,7,3.8,9.7,4.1c1.5,22.3,5.6,37.1,9.9,47.5C77.8,104.2,61.1,92.7,59.6,50.3z M125.1,107.2
			c4.3-10.4,8.4-25.2,9.9-47.5c2.6-0.3,6.8-1.2,9.7-4.1c1.5-1.5,2.4-3.3,2.8-5.4l4.2,0C150.2,92.7,133.5,104.2,125.1,107.2z"/>
	</g>
</g>
</svg>
